<?xml version="1.0" encoding="utf-8"?>
<!-- Generator: Adobe Illustrator 16.0.0, SVG Export Plug-In . SVG Version: 6.00 Build 0)  -->
<!DOCTYPE svg PUBLIC "-//W3C//DTD SVG 1.1//EN" "http://www.w3.org/Graphics/SVG/1.1/DTD/svg11.dtd">
<svg version="1.1" id="Layer_1" xmlns="http://www.w3.org/2000/svg" xmlns:xlink="http://www.w3.org/1999/xlink" x="0px" y="0px"
	 width="80px" height="80px" viewBox="0 0 80 80" enable-background="new 0 0 80 80" xml:space="preserve">
<path fill="#0048CF" d="M35.332,4.527c2.566,2.186,6.77,2.186,9.337,0l3.941-3.353c2.566-2.186,5.364-1.234,6.216,2.116l1.306,5.137
	c0.85,3.349,4.25,5.936,7.555,5.748l5.068-0.287c3.304-0.186,5.032,2.307,3.842,5.539l-1.826,4.96
	c-1.191,3.233,0.107,7.419,2.886,9.302l4.261,2.888c2.778,1.882,2.778,4.963,0,6.846l-4.261,2.888
	c-2.778,1.883-4.077,6.068-2.886,9.301l1.826,4.961c1.19,3.232-0.538,5.725-3.842,5.538l-5.068-0.287
	c-3.305-0.187-6.705,2.399-7.555,5.749l-1.306,5.137c-0.852,3.35-3.649,4.302-6.216,2.116l-3.941-3.353
	c-2.567-2.186-6.771-2.186-9.337,0l-3.941,3.353c-2.567,2.186-5.364,1.233-6.216-2.116l-1.307-5.137
	c-0.85-3.35-4.25-5.936-7.555-5.749l-5.068,0.287c-3.303,0.187-5.031-2.306-3.842-5.538l1.827-4.961
	c1.19-3.232-0.107-7.418-2.887-9.301l-4.261-2.888c-2.777-1.883-2.777-4.964,0-6.846l4.261-2.888
	c2.779-1.883,4.077-6.068,2.887-9.302l-1.827-4.96c-1.189-3.232,0.539-5.725,3.842-5.539l5.068,0.287
	c3.305,0.188,6.705-2.399,7.555-5.748l1.307-5.137c0.852-3.351,3.648-4.302,6.216-2.116L35.332,4.527z"/>
</svg>
